<?xml version="1.0" encoding="UTF-8" standalone="no"?><!DOCTYPE svg PUBLIC "-//W3C//DTD SVG 1.1//EN" "http://www.w3.org/Graphics/SVG/1.1/DTD/svg11.dtd"><svg width="100%" height="100%" viewBox="0 0 1200 160" version="1.1" xmlns="http://www.w3.org/2000/svg" xmlns:xlink="http://www.w3.org/1999/xlink" xml:space="preserve" xmlns:serif="http://www.serif.com/" style="fill-rule:evenodd;clip-rule:evenodd;stroke-linejoin:round;stroke-miterlimit:2;"><rect id="footer-bg" x="0" y="-0" width="1200" height="160" style="fill:none;"/><clipPath id="_clip1"><rect x="0" y="-0" width="1200" height="160"/></clipPath><g clip-path="url(#_clip1)"><path d="M693.735,55.646l0.067,0.039l17.222,0l0,-10.021l-17.289,9.982Z" style="fill:#3d4a3e;fill-rule:nonzero;"/><path d="M693.802,55.685l17.222,9.943l0,-9.943l-17.222,0Z" style="fill:#778c75;fill-rule:nonzero;"/><path d="M761.808,52.685l11.574,0l-8.681,-5.009l-2.893,5.009Z" style="fill:#3b443f;fill-rule:nonzero;"/><path d="M735.81,61.685l2.892,5.011l8.678,-5.011l-11.57,0Z" style="fill:#536259;fill-rule:nonzero;"/><path d="M734.808,50.685l2.893,-5.009l-8.677,-5.012l5.784,10.021Z" style="fill:#5e6d60;fill-rule:nonzero;"/><path d="M727.808,64.685l-5.75,9.963l0.034,0.02l8.609,-4.972l-2.891,-5.011l-0.002,0Z" style="fill:#586a5c;fill-rule:nonzero;"/><path d="M711.024,55.685l5.784,0l-5.784,-10.021l0,10.021Z" style="fill:#5f7263;fill-rule:nonzero;"/><path d="M713.024,57.685l0,9.943l0.034,0.02l5.75,-9.963l-5.784,0Z" style="fill:#728975;fill-rule:nonzero;"/><path d="M-0.146,41.237l17.145,-0l0,-9.9l-17.145,9.9Z" style="fill:#121714;fill-rule:nonzero;"/><path d="M-0.146,21.438l8.572,4.949l2.857,-4.949l-11.429,0Z" style="fill:#171b1a;fill-rule:nonzero;"/><path d="M11.285,21.438l-2.859,-4.95l-8.572,4.95l11.431,0Z" style="fill:#1e2421;fill-rule:nonzero;"/><path d="M17.999,9.539l-17.145,-9.9l8.572,14.849l8.573,-4.949Z" style="fill:#37403a;fill-rule:nonzero;"/><path d="M11.283,21.438l-2.857,4.949l8.573,4.95l-5.714,-9.899l-0.002,0Z" style="fill:#454c4a;fill-rule:nonzero;"/><path d="M8.426,16.489l-8.572,-14.85l-0,19.799l8.572,-4.949Z" style="fill:#2d3530;fill-rule:nonzero;"/><path d="M11.285,21.438l5.714,9.899l0,-9.899l-5.714,0Z" style="fill:#47534e;fill-rule:nonzero;"/><path d="M16.999,11.539l-8.573,4.949l2.858,4.95l5.715,-9.899Z" style="fill:#343c3a;fill-rule:nonzero;"/><path d="M11.285,21.438l5.714,0l0,-9.899l-5.714,9.899Z" style="fill:#57645e;fill-rule:nonzero;"/><path d="M-0.146,21.438l0,19.799l8.572,-14.85l-8.572,-4.949Z" style="fill:#212724;fill-rule:nonzero;"/><path d="M8.426,26.386l-8.572,14.85l17.145,-9.9l-8.573,-4.95Z" style="fill:#535f58;fill-rule:nonzero;"/><path d="M22.715,41.234l-5.717,-9.897l0,9.9l17.146,-0l-8.572,-4.951l-2.857,4.948Z" style="fill:#303734;fill-rule:nonzero;"/><path d="M45.579,41.234l5.712,-9.897l-8.571,4.947l2.859,4.95Z" style="fill:#282d2a;fill-rule:nonzero;"/><path d="M42.72,36.285l-8.576,4.951l17.147,0l-0,-9.9l-5.712,9.898l-2.859,-4.949Z" style="fill:#2e3632;fill-rule:nonzero;"/><path d="M16.999,31.337l5.716,9.897l2.858,-4.948l-8.574,-4.949Z" style="fill:#141715;fill-rule:nonzero;"/><path d="M37.144,19.438l-17.146,-9.899l0,9.899l17.146,0Z" style="fill:#222825;fill-rule:nonzero;"/><path d="M52.72,33.284l8.571,-4.948l-17.14,-9.894l8.569,14.842Z" style="fill:#1d211e;fill-rule:nonzero;"/><path d="M36.15,19.442l-0.006,0.008l0,19.787l8.576,-4.952l-8.57,-14.843Z" style="fill:#373e39;fill-rule:nonzero;"/><path d="M25.572,36.287l8.573,4.949l-0,-19.786l-8.573,14.837Z" style="fill:#1e221e;fill-rule:nonzero;"/><path d="M16.999,21.438l-0,9.899l17.146,-9.899l-17.146,0Z" style="fill:#3d4642;fill-rule:nonzero;"/><path d="M34.144,21.438l-17.146,9.899l8.574,4.949l8.572,-14.848Z" style="fill:#222824;fill-rule:nonzero;"/><path d="M93.291,26.237l17.146,-0l-17.146,-9.9l-0,9.9Z" style="fill:#4c5650;fill-rule:nonzero;"/><path d="M16.999,41.241l-17.145,-0l17.145,9.899l-0,-9.899Z" style="fill:#566160;fill-rule:nonzero;"/><path d="M-0.146,80.838l17.145,0l0,-9.9l-17.145,9.9Z" style="fill:#5c6a66;fill-rule:nonzero;"/><path d="M-0.146,61.039l8.572,4.949l2.857,-4.949l-11.429,0Z" style="fill:#3a4240;fill-rule:nonzero;"/><path d="M11.285,61.039l-2.859,-4.949l-8.572,4.949l11.431,0Z" style="fill:#525d5a;fill-rule:nonzero;"/><path d="M16.999,51.14l-17.145,-9.899l8.572,14.849l8.573,-4.95Z" style="fill:#56625e;fill-rule:nonzero;"/><path d="M11.283,61.039l-2.857,4.949l8.573,4.95l-5.714,-9.899l-0.002,0Z" style="fill:#5c6a67;fill-rule:nonzero;"/><path d="M8.426,56.09l-8.572,-14.85l-0,19.8l8.572,-4.95Z" style="fill:#1e2221;fill-rule:nonzero;"/><path d="M11.285,61.039l5.714,9.899l0,-9.899l-5.714,0Z" style="fill:#363f3c;fill-rule:nonzero;"/><path d="M16.999,51.14l-8.573,4.95l2.858,4.949l5.715,-9.899Z" style="fill:#191f1e;fill-rule:nonzero;"/><path d="M11.285,61.039l5.714,0l0,-9.899l-5.714,9.899Z" style="fill:#576262;fill-rule:nonzero;"/><path d="M-0.146,61.039l0,19.799l8.572,-14.85l-8.572,-4.949Z" style="fill:#5e6d66;fill-rule:nonzero;"/><path d="M8.426,65.988l-8.572,14.85l17.145,-9.9l-8.573,-4.95Z" style="fill:#5d6d68;fill-rule:nonzero;"/><path d="M45.577,41.241l-2.858,4.95l8.572,4.949l-5.71,-9.899l-0.004,-0Z" style="fill:#505954;fill-rule:nonzero;"/><path d="M22.715,80.835l-5.717,-9.897l0,9.9l17.146,0l-8.572,-4.95l-2.857,4.947Z" style="fill:#495451;fill-rule:nonzero;"/><path d="M52.58,44.241l5.711,9.899l-0,-9.899l-5.711,-0Z" style="fill:#535d57;fill-rule:nonzero;"/><path d="M45.579,80.835l5.712,-9.897l-8.571,4.947l2.859,4.95Z" style="fill:#353c3a;fill-rule:nonzero;"/><path d="M42.72,75.887l-8.576,4.951l17.147,-0l-0,-9.9l-5.712,9.897l-2.859,-4.948Z" style="fill:#373d3b;fill-rule:nonzero;"/><path d="M16.999,70.938l5.716,9.897l2.858,-4.947l-8.574,-4.95Z" style="fill:#3d4745;fill-rule:nonzero;"/><path d="M34.144,41.241l-11.426,-0l2.857,4.949l8.569,-4.949Z" style="fill:#404946;fill-rule:nonzero;"/><path d="M45.577,41.241l-11.433,-0l8.575,4.949l2.858,-4.949Z" style="fill:#3c4440;fill-rule:nonzero;"/><path d="M25.575,46.189l-2.857,-4.949l-0.006,0l-5.713,9.9l8.576,-4.951Z" style="fill:#2a3231;fill-rule:nonzero;"/><path d="M22.712,41.241l-5.714,-0l0,9.899l5.714,-9.899Z" style="fill:#1e2221;fill-rule:nonzero;"/><path d="M34.151,61.039l17.14,0l-0,-9.899l-17.135,9.892l-0.005,0.007Z" style="fill:#535e59;fill-rule:nonzero;"/><path d="M34.144,61.039l-17.146,-9.899l0,9.899l17.146,0Z" style="fill:#454d4c;fill-rule:nonzero;"/><path d="M42.72,75.886l8.571,-4.948l-17.14,-9.896l8.569,14.844Z" style="fill:#4a524f;fill-rule:nonzero;"/><path d="M34.15,61.043l-0.006,0.008l0,19.787l8.576,-4.951l-8.57,-14.844Z" style="fill:#535e59;fill-rule:nonzero;"/><path d="M25.572,75.888l8.573,4.95l-0,-19.787l-8.573,14.837Z" style="fill:#0f1011;fill-rule:nonzero;"/><path d="M44.151,64.039l0,0.004l17.14,9.895l-0,-9.899l-17.14,0Z" style="fill:#141715;fill-rule:nonzero;"/><path d="M34.144,61.031l0,-19.79l-8.569,4.948l8.569,14.842Z" style="fill:#1e2221;fill-rule:nonzero;"/><path d="M34.144,61.033l-8.569,-14.844l-8.577,4.951l17.146,9.9l0,-0.007Z" style="fill:#030404;fill-rule:nonzero;"/><path d="M16.999,61.039l-0,9.899l17.146,-9.899l-17.146,0Z" style="fill:#454e4c;fill-rule:nonzero;"/><path d="M34.144,61.039l-17.146,9.899l8.574,4.95l8.572,-14.849Z" style="fill:#4a5451;fill-rule:nonzero;"/><path d="M34.156,61.032l17.135,-9.892l-8.572,-4.949l-8.563,14.841Z" style="fill:#343b38;fill-rule:nonzero;"/><path d="M34.148,61.035l8.571,-14.845l-8.575,-4.949l0,19.79l0.004,0.004Z" style="fill:#1e2221;fill-rule:nonzero;"/><path d="M164.436,81.838l17.145,0l0,-9.9l-17.145,9.9Z" style="fill:#121514;fill-rule:nonzero;"/><path d="M84.291,82.838l17.146,0l-17.146,-9.9l-0,9.9Z" style="fill:#1e2421;fill-rule:nonzero;"/><path d="M78.291,42.241l-0,9.899l17.146,-9.899l-17.146,-0Z" style="fill:#4d544e;fill-rule:nonzero;"/><path d="M164.436,62.039l8.573,4.949l2.859,-4.949l-11.432,0Z" style="fill:#1b1f1d;fill-rule:nonzero;"/><path d="M171.868,60.039l-2.859,-4.949l-8.573,4.949l11.432,0Z" style="fill:#363a38;fill-rule:nonzero;"/><path d="M176.581,47.14l-17.145,-9.899l8.573,14.849l8.572,-4.95Z" style="fill:#212524;fill-rule:nonzero;"/><path d="M175.868,62.039l-2.859,4.949l8.572,4.95l-5.713,-9.899Z" style="fill:#39403c;fill-rule:nonzero;"/><path d="M159.009,55.09l-8.573,-14.85l0,19.8l8.573,-4.95Z" style="fill:#373c39;fill-rule:nonzero;"/><path d="M175.868,62.039l5.713,9.899l0,-9.899l-5.713,0Z" style="fill:#363c3a;fill-rule:nonzero;"/><path d="M102.863,60.09l-2.857,4.95l11.43,-0l-8.573,-4.95Z" style="fill:#2c302f;fill-rule:nonzero;"/><path d="M181.581,48.14l-8.572,4.95l2.858,4.949l5.714,-9.899Z" style="fill:#060808;fill-rule:nonzero;"/><path d="M110.863,70.988l8.572,-4.949l-11.429,0l2.857,4.949Z" style="fill:#424946;fill-rule:nonzero;"/><path d="M129.436,64.039l0,-19.798l-8.573,14.849l8.573,4.949Z" style="fill:#030303;fill-rule:nonzero;"/><path d="M182.868,52.039l5.713,0l0,-9.899l-5.713,9.899Z" style="fill:#4f5751;fill-rule:nonzero;"/><path d="M120.436,33.241l-17.146,9.899l8.573,4.95l8.573,-14.849Z" style="fill:#181b18;fill-rule:nonzero;"/><path d="M135.435,68.039l-8.572,4.949l8.573,14.85l0,-19.799l-0.001,0Z" style="fill:#1e2221;fill-rule:nonzero;"/><path d="M100.863,55.09l-8.572,-4.95l5.715,9.9l2.857,-4.95Z" style="fill:#181b1a;fill-rule:nonzero;"/><path d="M100.006,65.039l-5.716,9.899l8.572,-4.95l-2.856,-4.949Z" style="fill:#3d4642;fill-rule:nonzero;"/><path d="M140.436,59.039l0,19.799l8.573,-14.85l-8.573,-4.949Z" style="fill:#434a47;fill-rule:nonzero;"/><path d="M160.009,64.988l-8.573,14.85l17.145,-9.9l-8.572,-4.95Z" style="fill:#222825;fill-rule:nonzero;"/><path d="M100.291,74.938l17.146,9.9l-8.574,-14.85l-8.572,4.95Z" style="fill:#363d3a;fill-rule:nonzero;"/><path d="M78.006,73.039l-5.716,-9.899l0,9.899l5.716,0Z" style="fill:#292d2a;fill-rule:nonzero;"/><path d="M94.291,65.039l-0,9.899l5.715,-9.899l-5.715,0Z" style="fill:#323735;fill-rule:nonzero;"/><path d="M232.298,77.835l-5.717,-9.897l0,9.9l17.146,0l-8.572,-4.95l-2.857,4.947Z" style="fill:#434b4a;fill-rule:nonzero;"/><path d="M359.161,94.835l5.714,-9.897l-8.571,4.947l2.857,4.95Z" style="fill:#101414;fill-rule:nonzero;"/><path d="M769.915,79.887l8.577,4.951l-17.147,-0l-0,-9.9l5.713,9.897l2.857,-4.948Z" style="fill:#222827;fill-rule:nonzero;"/><path d="M181.581,71.938l5.717,9.897l2.858,-4.947l-8.575,-4.95Z" style="fill:#404744;fill-rule:nonzero;"/><path d="M222.727,54.039l-17.146,-9.899l-0,9.899l17.146,0Z" style="fill:#3d4641;fill-rule:nonzero;"/><path d="M799.915,142.886l-8.57,-4.948l17.139,-9.896l-8.569,14.844Z" style="fill:#0b0f0f;fill-rule:nonzero;"/><path d="M334.734,44.043l-0.007,0.008l0,19.787l8.577,-4.951l-8.57,-14.844Z" style="fill:#171a19;fill-rule:nonzero;"/><path d="M256.155,75.888l8.573,4.95l-0,-19.787l-8.573,14.837Z" style="fill:#181b1a;fill-rule:nonzero;"/><path d="M187.581,57.039l0,9.899l17.147,-9.899l-17.147,0Z" style="fill:#565f5a;fill-rule:nonzero;"/><path d="M219.727,62.039l-17.146,9.899l8.574,4.95l8.572,-14.849Z" style="fill:#2d3230;fill-rule:nonzero;"/><path d="M352.875,64.838l17.145,0l-17.145,-9.9l-0,9.9Z" style="fill:#303936;fill-rule:nonzero;"/><path d="M16.999,80.841l-17.145,0l17.145,9.9l-0,-9.9Z" style="fill:#57655c;fill-rule:nonzero;"/><path d="M-0.146,120.439l17.145,0l0,-9.9l-17.145,9.9Z" style="fill:#6c7d6d;fill-rule:nonzero;"/><path d="M-0.146,100.64l8.572,4.949l2.857,-4.949l-11.429,-0Z" style="fill:#5b685b;fill-rule:nonzero;"/><path d="M11.285,100.64l-2.859,-4.95l-8.572,4.95l11.431,-0Z" style="fill:#637467;fill-rule:nonzero;"/><path d="M16.999,90.741l-17.145,-9.9l8.572,14.849l8.573,-4.949Z" style="fill:#859b8d;fill-rule:nonzero;"/><path d="M11.283,100.64l-2.857,4.949l8.573,4.95l-5.714,-9.899l-0.002,-0Z" style="fill:#718274;fill-rule:nonzero;"/><path d="M8.426,95.691l-8.572,-14.85l-0,19.799l8.572,-4.949Z" style="fill:#7b8f7d;fill-rule:nonzero;"/><path d="M11.285,100.64l5.714,9.899l0,-9.899l-5.714,-0Z" style="fill:#687a6f;fill-rule:nonzero;"/><path d="M16.999,90.741l-8.573,4.949l2.858,4.95l5.715,-9.899Z" style="fill:#819588;fill-rule:nonzero;"/><path d="M11.285,100.64l5.714,-0l0,-9.899l-5.714,9.899Z" style="fill:#5c6c64;fill-rule:nonzero;"/><path d="M-0.146,100.64l0,19.799l8.572,-14.85l-8.572,-4.949Z" style="fill:#5c6c5c;fill-rule:nonzero;"/><path d="M8.426,105.588l-8.572,14.851l17.145,-9.901l-8.573,-4.95Z" style="fill:#708372;fill-rule:nonzero;"/><path d="M45.577,80.841l-2.858,4.951l8.572,4.949l-5.71,-9.9l-0.004,0Z" style="fill:#4a5451;fill-rule:nonzero;"/><path d="M22.715,120.436l-5.717,-9.897l0,9.901l17.146,-0l-8.572,-4.952l-2.857,4.948Z" style="fill:#3d4941;fill-rule:nonzero;"/><path d="M57.58,81.841l5.711,9.9l-0,-9.9l-5.711,0Z" style="fill:#4e5852;fill-rule:nonzero;"/><path d="M45.579,120.436l5.712,-9.897l-8.571,4.947l2.859,4.95Z" style="fill:#343c35;fill-rule:nonzero;"/><path d="M42.72,115.487l-8.576,4.952l17.147,0l-0,-9.901l-5.712,9.898l-2.859,-4.949Z" style="fill:#6a7a6c;fill-rule:nonzero;"/><path d="M16.999,110.539l5.716,9.896l2.858,-4.947l-8.574,-4.949Z" style="fill:#58685c;fill-rule:nonzero;"/><path d="M34.144,80.841l-11.426,0l2.857,4.949l8.569,-4.949Z" style="fill:#46504e;fill-rule:nonzero;"/><path d="M45.577,80.841l-11.433,0l8.575,4.95l2.858,-4.95Z" style="fill:#272d2b;fill-rule:nonzero;"/><path d="M25.575,85.79l-2.857,-4.949l-0.006,-0l-5.713,9.899l8.576,-4.95Z" style="fill:#3c4642;fill-rule:nonzero;"/><path d="M22.712,80.841l-5.714,0l0,9.9l5.714,-9.9Z" style="fill:#505d59;fill-rule:nonzero;"/><path d="M40.151,100.64l17.14,-0l-0,-9.899l-17.135,9.893l-0.005,0.006Z" style="fill:#2a312f;fill-rule:nonzero;"/><path d="M34.144,100.64l-17.146,-9.899l0,9.899l17.146,-0Z" style="fill:#4a5751;fill-rule:nonzero;"/><path d="M42.72,115.486l8.571,-4.948l-17.14,-9.894l8.569,14.842Z" style="fill:#445048;fill-rule:nonzero;"/><path d="M34.15,100.644l-0.006,0.008l0,19.787l8.576,-4.952l-8.57,-14.843Z" style="fill:#5e6d64;fill-rule:nonzero;"/><path d="M25.572,115.489l8.573,4.95l-0,-19.787l-8.573,14.837Z" style="fill:#66786d;fill-rule:nonzero;"/><path d="M42.151,102.64l0,0.004l17.14,9.894l-0,-9.898l-17.14,-0Z" style="fill:#353d39;fill-rule:nonzero;"/><path d="M34.144,100.632l0,-19.791l-8.569,4.949l8.569,14.842Z" style="fill:#5d6a66;fill-rule:nonzero;"/><path d="M34.144,100.634l-8.569,-14.845l-8.577,4.952l17.146,9.899l0,-0.006Z" style="fill:#54625c;fill-rule:nonzero;"/><path d="M16.999,100.64l-0,9.899l17.146,-9.899l-17.146,-0Z" style="fill:#5a6961;fill-rule:nonzero;"/><path d="M34.144,100.64l-17.146,9.899l8.574,4.949l8.572,-14.848Z" style="fill:#424f47;fill-rule:nonzero;"/><path d="M34.156,100.634l17.135,-9.893l-8.572,-4.949l-8.563,14.842Z" style="fill:#424c4a;fill-rule:nonzero;"/><path d="M34.148,100.636l8.571,-14.845l-8.575,-4.95l0,19.791l0.004,0.004Z" style="fill:#5a6764;fill-rule:nonzero;"/><path d="M174.581,84.841l-17.145,0l17.145,9.9l0,-9.9Z" style="fill:#0d0f0f;fill-rule:nonzero;"/><path d="M80.291,131.439l17.146,0l-17.146,-9.9l-0,9.9Z" style="fill:#454e48;fill-rule:nonzero;"/><path d="M87.291,84.841l-0,9.9l17.146,-9.9l-17.146,0Z" style="fill:#343a36;fill-rule:nonzero;"/><path d="M159.436,108.64l8.573,4.949l2.859,-4.949l-11.432,-0Z" style="fill:#2e3532;fill-rule:nonzero;"/><path d="M175.868,101.64l-2.859,-4.95l-8.573,4.95l11.432,-0Z" style="fill:#101412;fill-rule:nonzero;"/><path d="M165.581,94.741l-17.145,-9.9l8.573,14.849l8.572,-4.949Z" style="fill:#454c48;fill-rule:nonzero;"/><path d="M174.868,108.64l-2.859,4.949l8.572,4.95l-5.713,-9.899Z" style="fill:#242825;fill-rule:nonzero;"/><path d="M158.009,107.691l-8.573,-14.85l0,19.799l8.573,-4.949Z" style="fill:#454a48;fill-rule:nonzero;"/><path d="M194.868,103.64l5.713,9.899l0,-9.899l-5.713,-0Z" style="fill:#222724;fill-rule:nonzero;"/><path d="M110.863,96.691l-2.857,4.949l11.43,0l-8.573,-4.949Z" style="fill:#4c574f;fill-rule:nonzero;"/><path d="M181.581,91.741l-8.572,4.949l2.858,4.95l5.714,-9.899Z" style="fill:#212522;fill-rule:nonzero;"/><path d="M102.863,109.588l8.572,-4.948l-11.429,-0l2.857,4.948Z" style="fill:#242825;fill-rule:nonzero;"/><path d="M130.436,101.64l0,-19.799l-8.573,14.849l8.573,4.95Z" style="fill:#47504d;fill-rule:nonzero;"/><path d="M175.868,101.64l5.713,-0l0,-9.899l-5.713,9.899Z" style="fill:#222724;fill-rule:nonzero;"/><path d="M111.436,84.841l-17.146,9.9l8.573,4.95l8.573,-14.85Z" style="fill:#2a302c;fill-rule:nonzero;"/><path d="M121.435,106.64l-8.572,4.949l8.573,14.85l0,-19.799l-0.001,-0Z" style="fill:#3f4640;fill-rule:nonzero;"/><path d="M97.863,100.691l-8.572,-4.95l5.715,9.899l2.857,-4.949Z" style="fill:#4d544f;fill-rule:nonzero;"/><path d="M100.006,104.64l-5.716,9.899l8.572,-4.95l-2.856,-4.949Z" style="fill:#212522;fill-rule:nonzero;"/><path d="M137.436,116.64l0,19.799l8.573,-14.85l-8.573,-4.949Z" style="fill:#505952;fill-rule:nonzero;"/><path d="M171.009,119.588l-8.573,14.851l17.145,-9.901l-8.572,-4.95Z" style="fill:#292e2c;fill-rule:nonzero;"/><path d="M102.291,138.539l17.146,9.9l-8.574,-14.85l-8.572,4.95Z" style="fill:#353c36;fill-rule:nonzero;"/><path d="M87.006,104.64l-5.716,-9.899l0,9.899l5.716,-0Z" style="fill:#39403c;fill-rule:nonzero;"/><path d="M73.291,102.64l-0,9.899l5.715,-9.899l-5.715,-0Z" style="fill:#414946;fill-rule:nonzero;"/><path d="M320.16,55.841l-2.857,4.951l8.572,4.949l-5.712,-9.9l-0.003,0Z" style="fill-rule:nonzero;"/><path d="M351.163,99.841l5.712,9.9l-0,-9.9l-5.712,0Z" style="fill:#394240;fill-rule:nonzero;"/><path d="M207.727,82.841l-11.427,0l2.857,4.949l8.57,-4.949Z" style="fill:#010101;fill-rule:nonzero;"/><path d="M275.16,49.841l-11.433,0l8.576,4.95l2.857,-4.95Z" style="fill:#313736;fill-rule:nonzero;"/><path d="M201.157,93.79l-2.857,-4.949l-0.003,-0l-5.716,9.899l8.576,-4.95Z" style="fill:#474f4a;fill-rule:nonzero;"/><path d="M189.297,90.841l-5.716,0l-0,9.9l5.716,-9.9Z" style="fill:#353a38;fill-rule:nonzero;"/><path d="M241.727,111.64l-17.146,-9.899l-0,9.899l17.146,-0Z" style="fill:#080a0a;fill-rule:nonzero;"/><path d="M257.727,107.632l0,-19.791l-8.57,4.949l8.57,14.842Z" style="fill:#292e2c;fill-rule:nonzero;"/><path d="M219.727,104.634l-8.57,-14.845l-8.576,4.952l17.146,9.899l0,-0.006Z" style="fill:#393f3c;fill-rule:nonzero;"/><path d="M188.581,117.64l0,9.899l17.147,-9.899l-17.147,-0Z" style="fill:#272d29;fill-rule:nonzero;"/><path d="M307.739,102.634l17.136,-9.893l-8.573,-4.949l-8.563,14.842Z" style="fill:#29302f;fill-rule:nonzero;"/><path d="M287.73,97.636l8.573,-14.845l-8.576,-4.95l0,19.791l0.003,0.004Z" style="fill:#4e5755;fill-rule:nonzero;"/><path d="M383.875,115.841l-0,9.9l17.145,-9.9l-17.145,0Z" style="fill:#3e4846;fill-rule:nonzero;"/><path d="M16.999,120.443l-17.145,-0l17.145,9.899l-0,-9.899Z" style="fill:#3e4b3f;fill-rule:nonzero;"/><path d="M-0.146,140.241l8.572,4.949l2.857,-4.949l-11.429,0Z" style="fill:#6c7d67;fill-rule:nonzero;"/><path d="M11.285,140.241l-2.859,-4.949l-8.572,4.949l11.431,0Z" style="fill:#404b3f;fill-rule:nonzero;"/><path d="M16.999,130.342l-17.145,-9.899l8.572,14.849l8.573,-4.95Z" style="fill:#738772;fill-rule:nonzero;"/><path d="M11.283,140.241l-2.857,4.949l8.573,4.95l-5.714,-9.899l-0.002,0Z" style="fill:#505e50;fill-rule:nonzero;"/><path d="M8.426,135.292l-8.572,-14.85l-0,19.8l8.572,-4.95Z" style="fill:#61715e;fill-rule:nonzero;"/><path d="M11.285,140.241l5.714,9.899l0,-9.899l-5.714,0Z" style="fill:#525f50;fill-rule:nonzero;"/><path d="M16.999,130.342l-8.573,4.95l2.858,4.949l5.715,-9.899Z" style="fill:#647664;fill-rule:nonzero;"/><path d="M11.285,140.241l5.714,0l0,-9.899l-5.714,9.899Z" style="fill:#5b695b;fill-rule:nonzero;"/><path d="M-0.146,140.241l0,19.799l8.572,-14.85l-8.572,-4.949Z" style="fill:#505d49;fill-rule:nonzero;"/><path d="M8.426,145.19l-8.572,14.85l17.145,-9.9l-8.573,-4.95Z" style="fill:#4f5d4e;fill-rule:nonzero;"/><path d="M45.577,120.443l-2.858,4.95l8.572,4.949l-5.71,-9.899l-0.004,-0Z" style="fill:#49554c;fill-rule:nonzero;"/><path d="M55.58,120.443l5.711,9.899l-0,-9.899l-5.711,-0Z" style="fill:#6e7e6f;fill-rule:nonzero;"/><path d="M34.144,120.443l-11.426,-0l2.857,4.948l8.569,-4.948Z" style="fill:#3e4a3f;fill-rule:nonzero;"/><path d="M45.577,120.443l-11.433,-0l8.575,4.949l2.858,-4.949Z" style="fill:#515f54;fill-rule:nonzero;"/><path d="M25.575,125.391l-2.857,-4.949l-0.006,0l-5.713,9.9l8.576,-4.951Z" style="fill:#49554a;fill-rule:nonzero;"/><path d="M22.712,120.443l-5.714,-0l0,9.899l5.714,-9.899Z" style="fill:#6c7e6f;fill-rule:nonzero;"/><path d="M34.144,140.241l-17.146,-9.899l0,9.899l17.146,0Z" style="fill:#6c7d6e;fill-rule:nonzero;"/><path d="M34.144,140.233l0,-19.79l-8.569,4.948l8.569,14.842Z" style="fill:#708274;fill-rule:nonzero;"/><path d="M34.144,140.235l-8.569,-14.844l-8.577,4.951l17.146,9.899l0,-0.006Z" style="fill:#5d6d62;fill-rule:nonzero;"/><path d="M21.589,144.174l-2.585,9.555l19.136,-5.076l-16.551,-4.479Z" style="fill:#5e6f61;fill-rule:nonzero;"/><path d="M39.156,146.234l17.135,-9.892l-8.572,-4.949l-8.563,14.841Z" style="fill:#606f62;fill-rule:nonzero;"/><path d="M34.148,140.237l8.571,-14.845l-8.575,-4.949l0,19.79l0.004,0.004Z" style="fill:#586559;fill-rule:nonzero;"/><path d="M66.291,140.443l-0,9.899l17.146,-9.899l-17.146,-0Z" style="fill:#637166;fill-rule:nonzero;"/><path d="M423.48,86.941l17.573,-10.147l-8.786,-5.073l-8.787,15.22Z" style="fill:#787539;fill-rule:nonzero;"/><path d="M419.267,68.722l-8.786,-5.073l-0.001,20.292l8.787,-15.219Z" style="fill:#535947;fill-rule:nonzero;"/><path d="M1194.85,37.187l-2.672,4.627l-5.343,-9.254l8.015,4.627Z" style="fill:#9b957b;fill-rule:nonzero;"/><path d="M1179.17,43.815l2.672,-4.628l8.02,4.631l-16.034,0l0,-9.259l5.342,9.256Z" style="fill:#a89e82;fill-rule:nonzero;"/><path d="M1149.8,59.818l-16.033,-0l0,-9.258l16.033,9.258Z" style="fill:#c7cfbf;fill-rule:nonzero;"/><path d="M1152.8,64.818l-16.033,9.256l0,-9.256l16.033,-0Z" style="fill:#a3ac9e;fill-rule:nonzero;"/><path d="M1173.83,56.818l-16.034,-0l16.034,-9.258l-0,9.258Z" style="fill:#989782;fill-rule:nonzero;"/><path d="M1150.8,35.303l8.016,4.628l-8.018,13.887l-0,-18.515l0.002,0Z" style="fill:#8a8a78;fill-rule:nonzero;"/><path d="M1142.8,51.818l-16.033,-9.258l8.017,-4.629l8.016,13.887Z" style="fill:#a1a89b;fill-rule:nonzero;"/><path d="M1168.83,47.559l-16.034,9.259l8.018,-13.886l8.016,4.627Z" style="fill:#a2a28c;fill-rule:nonzero;"/><path d="M1126.77,57.818l-16.034,-0l8.016,-4.63l2.673,4.626l5.345,-9.254l-0,9.258Z" style="fill:#b9c3b5;fill-rule:nonzero;"/><path d="M1109.42,56.815l-2.672,-4.626l8.017,-4.63l-5.345,9.256Z" style="fill:#949a8d;fill-rule:nonzero;"/><path d="M1174.18,63.82l2.672,4.629l-8.016,4.627l5.34,-9.256l0.004,-0Z" style="fill:#888470;fill-rule:nonzero;"/><path d="M1199.9,103.849l-16.033,-0l8.016,-4.629l2.673,4.625l5.344,-9.253l-0,9.257Z" style="fill:#a59d75;fill-rule:nonzero;"/><path d="M1173.17,60.82l-5.34,9.256l-0,-9.256l5.34,-0Z" style="fill:#9c9a83;fill-rule:nonzero;"/><path d="M1175.85,99.218l-2.672,4.627l-5.343,-9.253l8.015,4.626Z" style="fill:#848767;fill-rule:nonzero;"/><path d="M1173.17,103.845l2.672,-4.626l8.02,4.63l-16.034,0l0,-9.257l5.342,9.253Z" style="fill:#a4a886;fill-rule:nonzero;"/><path d="M1194.56,103.845l-2.672,-4.625l8.016,-4.628l-5.344,9.253Z" style="fill:#8d8562;fill-rule:nonzero;"/><path d="M1189.87,46.82l-8.018,4.629l-2.672,-4.629l10.69,-0Z" style="fill:#b1ab93;fill-rule:nonzero;"/><path d="M1183.86,85.329l0.004,0.005l-16.027,-0l-0,-9.258l16.023,9.253Z" style="fill:#9d9b81;fill-rule:nonzero;"/><path d="M1199.9,85.334l-16.033,0l16.033,-9.257l-0,9.257Z" style="fill:#9aa08f;fill-rule:nonzero;"/><path d="M1199.9,85.334l-0,9.258l-16.033,-9.258l16.033,0Z" style="fill:#b9c0ac;fill-rule:nonzero;"/><path d="M1175.85,99.218l-8.015,-4.626l16.026,-9.253l-8.011,13.879Z" style="fill:#929478;fill-rule:nonzero;"/><path d="M1183.87,85.345l-0,18.504l-8.019,-4.631l8.014,-13.879l0.005,0.006Z" style="fill:#888a6d;fill-rule:nonzero;"/><path d="M1191.88,99.22l-8.016,4.629l-0,-18.504l8.016,13.875Z" style="fill:#929071;fill-rule:nonzero;"/><path d="M1183.86,85.334l0.003,0.002l-0.003,0.003l-16.026,9.253l0,-9.258l16.026,0Z" style="fill:#9a9b7c;fill-rule:nonzero;"/><path d="M1194.88,62.448l-8.015,13.879l-0,-18.507l8.015,4.628Z" style="fill:#a2a18a;fill-rule:nonzero;"/><path d="M1205.9,71.076l-16.033,9.258l0,-0.005l8.015,-13.881l8.018,4.628Z" style="fill:#b7c1b0;fill-rule:nonzero;"/><path d="M1199.9,94.592l-8.017,4.628l-8.016,-13.885l16.033,9.257Z" style="fill:#bab291;fill-rule:nonzero;"/><path d="M1183.86,85.329l-16.023,-9.253l8.016,-4.626l8.007,13.879Z" style="fill:#a09f84;fill-rule:nonzero;"/><path d="M1184.87,83.328l-0.002,0.003l-8.016,-13.882l8.018,-4.63l-0,18.509Z" style="fill:#aca88c;fill-rule:nonzero;"/><path d="M1151.8,103.849l-16.033,-0l0,-9.257l16.033,9.257Z" style="fill:#afb79b;fill-rule:nonzero;"/><path d="M1167.83,103.849l-16.034,-0l16.034,-9.257l-0,9.257Z" style="fill:#9fa380;fill-rule:nonzero;"/><path d="M1166.83,61.82l-0,9.256l-16.034,-9.256l16.034,-0Z" style="fill:#abb19d;fill-rule:nonzero;"/><path d="M1151.8,85.334l-8.016,4.629l-2.672,-4.629l10.688,0Z" style="fill:#a1a890;fill-rule:nonzero;"/><path d="M1151.8,85.334l-10.688,0l2.672,-4.627l8.016,4.627Z" style="fill:#b2bfae;fill-rule:nonzero;"/><path d="M1143.78,80.707l-8.016,-4.631l16.032,-9.257l-8.016,13.888Z" style="fill:#bfc8b8;fill-rule:nonzero;"/><path d="M1143.78,89.963l-8.016,4.629l5.344,-9.258l2.672,4.629Z" style="fill:#899280;fill-rule:nonzero;"/><path d="M1151.8,85.334l-8.016,-4.627l8.016,-13.888l0,18.515Z" style="fill:#96a091;fill-rule:nonzero;"/><path d="M1141.11,85.334l-5.344,9.258l-0,-9.258l5.344,0Z" style="fill:#b1baa7;fill-rule:nonzero;"/><path d="M1162.49,85.334l-10.691,0l8.019,-4.627l2.672,4.627Z" style="fill:#878b76;fill-rule:nonzero;"/><path d="M1143.78,80.707l-2.672,4.627l-5.344,-9.258l8.016,4.631Z" style="fill:#bfcab7;fill-rule:nonzero;"/><path d="M1162.49,85.334l-2.671,4.629l-8.016,-4.629l10.687,0Z" style="fill:#96977b;fill-rule:nonzero;"/><path d="M1159.82,80.707l-8.018,4.627l0,-18.515l8.018,13.888Z" style="fill:#9ca595;fill-rule:nonzero;"/><path d="M1141.11,85.334l-5.344,0l-0,-9.257l5.344,9.257Z" style="fill:#a3ab9e;fill-rule:nonzero;"/><path d="M1167.83,76.076l-8.016,4.631l-8.018,-13.887l16.034,9.256Z" style="fill:#acb3a0;fill-rule:nonzero;"/><path d="M1151.8,85.334l8.016,4.629l-8.018,13.886l-0,-18.515l0.002,0Z" style="fill:#696b52;fill-rule:nonzero;"/><path d="M1162.49,85.334l-2.672,-4.627l8.015,-4.63l-5.343,9.257Z" style="fill:#898a75;fill-rule:nonzero;"/><path d="M1162.49,85.334l5.343,9.258l-8.015,-4.629l2.67,-4.629l0.002,0Z" style="fill:#989879;fill-rule:nonzero;"/><path d="M1151.8,103.849l-8.016,-13.886l8.016,-4.629l0,18.515Z" style="fill:#8c9074;fill-rule:nonzero;"/><path d="M1151.8,103.849l-16.033,-9.257l8.017,-4.629l8.016,13.886Z" style="fill:#989d82;fill-rule:nonzero;"/><path d="M1167.83,94.592l-16.034,9.256l8.018,-13.885l8.016,4.629Z" style="fill:#6c6e55;fill-rule:nonzero;"/><path d="M1167.83,85.334l-5.343,0l5.343,-9.257l-0,9.257Z" style="fill:#b0b49a;fill-rule:nonzero;"/><path d="M1167.83,85.334l-0,9.258l-5.343,-9.258l5.343,0Z" style="fill:#a7a787;fill-rule:nonzero;"/><path d="M1135.77,103.849l-16.034,-0l8.016,-4.629l2.673,4.625l5.345,-9.253l-0,9.257Z" style="fill:#858e7e;fill-rule:nonzero;"/><path d="M1111.71,99.218l-2.673,4.627l-5.342,-9.253l8.015,4.626Z" style="fill:#b9c1b0;fill-rule:nonzero;"/><path d="M1096.04,102.845l2.673,-4.626l8.019,4.63l-16.034,0l0,-9.257l5.342,9.253Z" style="fill:#a4ab9d;fill-rule:nonzero;"/><path d="M1130.42,103.845l-2.672,-4.625l8.017,-4.628l-5.345,9.253Z" style="fill:#899183;fill-rule:nonzero;"/><path d="M1129.42,61.82l-2.673,4.627l-8.015,-4.627l10.688,-0Z" style="fill:#a3ac9e;fill-rule:nonzero;"/><path d="M1130.42,66.82l5.343,9.256l-8.019,-4.629l2.672,-4.627l0.004,-0Z" style="fill:#b6bca8;fill-rule:nonzero;"/><path d="M1135.77,66.82l-0,9.256l-5.343,-9.256l5.343,-0Z" style="fill:#949b8f;fill-rule:nonzero;"/><path d="M1108.72,83.329l0.005,0.005l-16.028,-0l-0,-9.258l16.023,9.253Z" style="fill:#b7c2b4;fill-rule:nonzero;"/><path d="M1135.77,85.334l-16.034,0l16.034,-9.257l-0,9.257Z" style="fill:#a9b2a5;fill-rule:nonzero;"/><path d="M1111.71,99.218l-8.015,-4.626l16.028,-9.253l-8.013,13.879Z" style="fill:#b1baab;fill-rule:nonzero;"/><path d="M1119.73,85.345l-0,18.504l-8.019,-4.631l8.015,-13.879l0.004,0.006Z" style="fill:#b6c1b2;fill-rule:nonzero;"/><path d="M1127.75,99.22l-8.016,4.629l-0,-18.504l8.016,13.875Z" style="fill:#b8c5b4;fill-rule:nonzero;"/><path d="M1111.73,86.334l0,0.005l-16.028,9.253l0,-9.258l16.028,0Z" style="fill:#b0baaa;fill-rule:nonzero;"/><path d="M1124.75,70.448l-8.015,13.879l-0,-18.507l8.015,4.628Z" style="fill:#b6c2b6;fill-rule:nonzero;"/><path d="M1135.77,76.076l-16.034,9.258l0,-0.005l8.015,-13.881l8.019,4.628Z" style="fill:#9aa498;fill-rule:nonzero;"/><path d="M1135.77,85.334l-0,9.258l-16.034,-9.258l16.034,0Z" style="fill:#bdc7b7;fill-rule:nonzero;"/><path d="M1135.77,94.592l-8.018,4.628l-8.016,-13.885l16.034,9.257Z" style="fill:#acb6a6;fill-rule:nonzero;"/><path d="M1106.72,75.329l-16.023,-9.253l8.016,-4.626l8.007,13.879Z" style="fill:#939d91;fill-rule:nonzero;"/><path d="M1114.73,80.328l-0.004,0.003l-8.014,-13.882l8.018,-4.63l-0,18.509Z" style="fill:#c5d0c4;fill-rule:nonzero;"/><path d="M933.666,40.849l-15.929,-0l-0,-9.198l15.929,9.198Z" style="fill:#7a8073;fill-rule:nonzero;"/><path d="M1068.7,81.849l-16.032,-0l16.032,-9.257l0,9.257Z" style="fill:#929b8f;fill-rule:nonzero;"/><path d="M1060.35,46.334l-10.688,0l8.016,-4.627l2.672,4.627Z" style="fill:#bbc3b6;fill-rule:nonzero;"/><path d="M1056.35,49.334l-2.672,4.629l-8.016,-4.629l10.688,0Z" style="fill:#bdc5b5;fill-rule:nonzero;"/><path d="M1023.68,54.963l-8.016,13.886l-0,-18.515l8.016,4.629Z" style="fill:#a6ab9c;fill-rule:nonzero;"/><path d="M1056.35,64.334l-2.672,-4.627l8.016,-4.63l-5.344,9.257Z" style="fill:#b1b9ac;fill-rule:nonzero;"/><path d="M1058.7,73.592l-8.016,-4.629l2.672,-4.628l5.344,9.257Z" style="fill:#acb6a9;fill-rule:nonzero;"/><path d="M972.666,65.849l-8.017,-13.886l8.017,-4.629l-0,18.515Z" style="fill:#959c8f;fill-rule:nonzero;"/><path d="M970.666,39.849l-15.929,-9.198l-0,-0.119l7.912,-4.569l8.017,13.886Z" style="fill:#a2a99c;fill-rule:nonzero;"/><path d="M1047.7,104.592l-16.032,9.256l8.016,-13.885l8.016,4.629Z" style="fill:#a4aea1;fill-rule:nonzero;"/><path d="M1071.7,65.334l-5.344,0l5.344,-9.257l0,9.257Z" style="fill:#a9b3a7;fill-rule:nonzero;"/><path d="M1071.7,65.334l0,9.258l-5.344,-9.258l5.344,0Z" style="fill:#8f978d;fill-rule:nonzero;"/><path d="M1173.18,103.853l2.672,4.629l-8.016,4.628l5.34,-9.257l0.004,-0Z" style="fill:#838d67;fill-rule:nonzero;"/><path d="M1199.9,140.88l-16.033,0l8.016,-4.627l2.673,4.625l5.344,-9.254l-0,9.256Z" style="fill:#606b4e;fill-rule:nonzero;"/><path d="M1173.17,103.853l-5.34,9.257l-0,-9.257l5.34,-0Z" style="fill:#586046;fill-rule:nonzero;"/><path d="M1175.85,136.251l-2.672,4.627l-5.343,-9.254l8.015,4.627Z" style="fill:#4b5746;fill-rule:nonzero;"/><path d="M1173.17,140.878l2.672,-4.627l8.02,4.63l-16.034,-0l0,-9.258l5.342,9.255Z" style="fill:#515e4c;fill-rule:nonzero;"/><path d="M1194.56,140.878l-2.672,-4.627l8.016,-4.628l-5.344,9.255Z" style="fill:#4f5941;fill-rule:nonzero;"/><path d="M1194.55,103.853l-2.672,4.627l-8.015,-4.627l10.687,-0Z" style="fill:#939268;fill-rule:nonzero;"/><path d="M1183.87,103.853l-8.018,4.627l-2.672,-4.627l10.69,-0Z" style="fill:#818a64;fill-rule:nonzero;"/><path d="M1194.56,103.853l5.341,9.257l-8.017,-4.63l2.672,-4.627l0.004,-0Z" style="fill:#626042;fill-rule:nonzero;"/><path d="M1199.9,103.853l-0,9.257l-5.342,-9.257l5.342,-0Z" style="fill:#89865c;fill-rule:nonzero;"/><path d="M1183.86,122.36l0.004,0.007l-16.027,0l-0,-9.257l16.023,9.25Z" style="fill:#48523b;fill-rule:nonzero;"/><path d="M1199.9,122.367l-16.033,0l16.033,-9.257l-0,9.257Z" style="fill:#6f7450;fill-rule:nonzero;"/><path d="M1175.85,136.251l-8.015,-4.627l16.026,-9.255l-8.011,13.882Z" style="fill:#4f5946;fill-rule:nonzero;"/><path d="M1183.87,122.378l-0,18.502l-8.019,-4.63l8.014,-13.881l0.005,0.009Z" style="fill:#5c684f;fill-rule:nonzero;"/><path d="M1191.88,136.252l-8.016,4.628l-0,-18.502l8.016,13.874Z" style="fill:#454c39;fill-rule:nonzero;"/><path d="M1167.83,122.367l16.029,0l-0.003,0.002l-16.026,9.255l0,-9.257Z" style="fill:#606e56;fill-rule:nonzero;"/><path d="M1191.88,108.48l-8.015,13.879l-0,-18.506l8.015,4.627Z" style="fill:#50563c;fill-rule:nonzero;"/><path d="M1199.9,113.11l-16.033,9.257l0,-0.007l8.015,-13.88l8.018,4.63Z" style="fill:#707552;fill-rule:nonzero;"/><path d="M1199.9,122.367l-0,9.257l-16.033,-9.257l16.033,0Z" style="fill:#4c543b;fill-rule:nonzero;"/><path d="M1199.9,131.624l-8.017,4.626l-8.016,-13.883l16.033,9.257Z" style="fill:#727f5e;fill-rule:nonzero;"/><path d="M1183.86,122.36l-16.023,-9.25l8.016,-4.629l8.007,13.879Z" style="fill:#626d51;fill-rule:nonzero;"/><path d="M1183.87,122.358l-0.002,0.004l-8.016,-13.882l8.018,-4.627l-0,18.505Z" style="fill:#727c5a;fill-rule:nonzero;"/><path d="M1151.8,103.853l-16.033,9.257l0,-9.257l16.033,-0Z" style="fill:#898f72;fill-rule:nonzero;"/><path d="M1151.8,140.88l-16.033,0l0,-9.256l16.033,9.256Z" style="fill:#657464;fill-rule:nonzero;"/><path d="M1167.83,140.88l-16.034,0l16.034,-9.256l-0,9.256Z" style="fill:#617261;fill-rule:nonzero;"/><path d="M1167.83,103.853l-0,9.257l-16.034,-9.257l16.034,-0Z" style="fill:#4e533c;fill-rule:nonzero;"/><path d="M1151.8,122.367l-8.016,4.626l-2.672,-4.626l10.688,0Z" style="fill:#65715c;fill-rule:nonzero;"/><path d="M1151.8,122.367l-10.688,0l2.672,-4.629l8.016,4.629Z" style="fill:#7d8669;fill-rule:nonzero;"/><path d="M1143.78,117.738l-8.016,-4.628l16.032,-9.257l-8.016,13.885Z" style="fill:#9ea482;fill-rule:nonzero;"/><path d="M1143.78,126.994l-8.016,4.629l5.344,-9.255l2.672,4.626Z" style="fill:#4b5444;fill-rule:nonzero;"/><path d="M1151.8,122.367l-8.016,-4.629l8.016,-13.885l0,18.514Z" style="fill:#888e6d;fill-rule:nonzero;"/><path d="M1141.11,122.367l-5.344,9.257l-0,-9.257l5.344,0Z" style="fill:#788a72;fill-rule:nonzero;"/><path d="M1162.49,122.367l-10.691,0l8.019,-4.629l2.672,4.629Z" style="fill:#585f47;fill-rule:nonzero;"/><path d="M1143.78,117.738l-2.672,4.629l-5.344,-9.257l8.016,4.628Z" style="fill:#6e755c;fill-rule:nonzero;"/><path d="M1162.49,122.367l-2.671,4.626l-8.016,-4.626l10.687,0Z" style="fill:#363e34;fill-rule:nonzero;"/><path d="M1159.82,117.738l-8.018,4.629l0,-18.514l8.018,13.885Z" style="fill:#61694f;fill-rule:nonzero;"/><path d="M1141.11,122.367l-5.344,0l-0,-9.257l5.344,9.257Z" style="fill:#819476;fill-rule:nonzero;"/><path d="M1167.83,113.11l-8.016,4.628l-8.018,-13.886l16.034,9.258Z" style="fill:#818966;fill-rule:nonzero;"/><path d="M1151.8,122.367l8.016,4.626l-8.018,13.887l-0,-18.513l0.002,0Z" style="fill:#687966;fill-rule:nonzero;"/><path d="M1162.49,122.367l-2.672,-4.629l8.015,-4.628l-5.343,9.257Z" style="fill:#5c664f;fill-rule:nonzero;"/><path d="M1162.49,122.367l5.343,9.257l-8.015,-4.631l2.67,-4.626l0.002,0Z" style="fill:#657763;fill-rule:nonzero;"/><path d="M1151.8,140.88l-8.016,-13.887l8.016,-4.625l0,18.512Z" style="fill:#6a7863;fill-rule:nonzero;"/><path d="M1151.8,140.88l-16.033,-9.256l8.017,-4.631l8.016,13.887Z" style="fill:#343c32;fill-rule:nonzero;"/><path d="M1167.83,131.624l-16.034,9.256l8.018,-13.886l8.016,4.63Z" style="fill:#485547;fill-rule:nonzero;"/><path d="M1167.83,122.367l-5.343,0l5.343,-9.257l-0,9.257Z" style="fill:#59644a;fill-rule:nonzero;"/><path d="M1167.83,122.367l-0,9.257l-5.343,-9.257l5.343,0Z" style="fill:#404c3b;fill-rule:nonzero;"/><path d="M1109.04,103.853l2.673,4.629l-8.017,4.628l5.339,-9.257l0.005,-0Z" style="fill:#7e8274;fill-rule:nonzero;"/><path d="M1135.77,140.88l-16.034,0l8.016,-4.627l2.673,4.625l5.345,-9.254l-0,9.256Z" style="fill:#4a5548;fill-rule:nonzero;"/><path d="M1109.04,103.853l-5.34,9.257l-0,-9.257l5.34,-0Z" style="fill:#9ba18d;fill-rule:nonzero;"/><path d="M1111.71,136.251l-2.673,4.627l-5.342,-9.254l8.015,4.627Z" style="fill:#3b3e34;fill-rule:nonzero;"/><path d="M1109.04,140.878l2.673,-4.627l8.019,4.63l-16.034,-0l0,-9.258l5.342,9.255Z" style="fill:#373d32;fill-rule:nonzero;"/><path d="M1130.42,140.878l-2.672,-4.627l8.017,-4.628l-5.345,9.255Z" style="fill:#586559;fill-rule:nonzero;"/><path d="M1130.42,103.853l-2.673,4.627l-8.015,-4.627l10.688,-0Z" style="fill:#aeb8a1;fill-rule:nonzero;"/><path d="M1119.73,103.853l-8.018,4.627l-2.672,-4.627l10.69,-0Z" style="fill:#aab29d;fill-rule:nonzero;"/><path d="M1130.42,103.853l5.343,9.257l-8.019,-4.63l2.672,-4.627l0.004,-0Z" style="fill:#8c927a;fill-rule:nonzero;"/><path d="M1135.77,103.853l-0,9.257l-5.343,-9.257l5.343,-0Z" style="fill:#939980;fill-rule:nonzero;"/><path d="M1119.72,122.36l0.005,0.007l-16.028,0l-0,-9.257l16.023,9.25Z" style="fill:#6f7262;fill-rule:nonzero;"/><path d="M1135.77,122.367l-16.034,0l16.034,-9.257l-0,9.257Z" style="fill:#959e82;fill-rule:nonzero;"/><path d="M1111.71,136.251l-8.015,-4.627l16.028,-9.255l-8.013,13.882Z" style="fill:#535b4a;fill-rule:nonzero;"/><path d="M1119.73,122.378l-0,18.502l-8.019,-4.63l8.015,-13.881l0.004,0.009Z" style="fill:#596351;fill-rule:nonzero;"/><path d="M1127.75,136.252l-8.016,4.628l-0,-18.502l8.016,13.874Z" style="fill:#5e6754;fill-rule:nonzero;"/><path d="M1119.73,122.367l0,0.002l-16.028,9.255l0,-9.257l16.028,0Z" style="fill:#79826d;fill-rule:nonzero;"/><path d="M1127.75,108.48l-8.015,13.879l-0,-18.506l8.015,4.627Z" style="fill:#999f85;fill-rule:nonzero;"/><path d="M1135.77,113.11l-16.034,9.257l0,-0.007l8.015,-13.88l8.019,4.63Z" style="fill:#6c735d;fill-rule:nonzero;"/><path d="M1135.77,122.367l-0,9.257l-16.034,-9.257l16.034,0Z" style="fill:#74826a;fill-rule:nonzero;"/><path d="M1135.77,131.624l-8.018,4.626l-8.016,-13.883l16.034,9.257Z" style="fill:#646e59;fill-rule:nonzero;"/><path d="M1119.72,122.36l-16.023,-9.25l8.016,-4.629l8.007,13.879Z" style="fill:#787b6a;fill-rule:nonzero;"/><path d="M1119.73,122.358l-0.004,0.004l-8.014,-13.882l8.018,-4.627l-0,18.505Z" style="fill:#848b75;fill-rule:nonzero;"/><path d="M820.666,64.853l-15.929,9.197l-0,-9.197l15.929,-0Z" style="fill:#a4ab99;fill-rule:nonzero;"/><path d="M901.666,119.88l-15.929,0l-0,-9.197l15.929,9.197Z" style="fill:#646c5c;fill-rule:nonzero;"/><path d="M1103.7,140.88l-16.032,0l16.032,-9.256l0,9.256Z" style="fill:#737b68;fill-rule:nonzero;"/><path d="M1084.7,96.853l0,9.257l-16.032,-9.257l16.032,-0Z" style="fill:#9da08f;fill-rule:nonzero;"/><path d="M1020.67,88.367l-8.017,4.626l-2.673,-4.626l10.69,0Z" style="fill:#737965;fill-rule:nonzero;"/><path d="M989.666,86.367l-10.69,0l2.673,-4.629l8.017,4.629Z" style="fill:#989d86;fill-rule:nonzero;"/><path d="M891.649,78.738l-7.912,-4.569l-0,-0.119l15.929,-9.197l-8.017,13.885Z" style="fill:#7e8576;fill-rule:nonzero;"/><path d="M944.649,103.994l-7.912,4.57l-0,-0.119l5.239,-9.077l2.673,4.626Z" style="fill:#767d69;fill-rule:nonzero;"/><path d="M990.666,80.367l-8.017,-4.629l8.017,-13.885l-0,18.514Z" style="fill:#7f8676;fill-rule:nonzero;"/><path d="M912.976,94.367l-5.24,9.078l0,-9.078l5.24,0Z" style="fill:#656e5b;fill-rule:nonzero;"/><path d="M1074.35,118.367l-10.688,0l8.016,-4.629l2.672,4.629Z" style="fill:#91927d;fill-rule:nonzero;"/><path d="M937.649,77.738l-2.673,4.629l-5.239,-9.079l-0,-0.119l7.912,4.569Z" style="fill:#9ea28e;fill-rule:nonzero;"/><path d="M1081.35,121.367l-2.672,4.626l-8.016,-4.626l10.688,0Z" style="fill:#626354;fill-rule:nonzero;"/><path d="M1042.68,129.738l-8.016,4.629l-0,-18.514l8.016,13.885Z" style="fill:#a6ad9b;fill-rule:nonzero;"/><path d="M855.976,94.367l-5.24,0l0,-9.079l5.24,9.079Z" style="fill:#979a86;fill-rule:nonzero;"/><path d="M1067.7,100.11l-8.016,4.628l-8.016,-13.886l16.032,9.258Z" style="fill:#b1b6a3;fill-rule:nonzero;"/><path d="M1065.68,125.994l-8.016,13.887l-0,-18.513l8.016,4.626Z" style="fill:#6b705f;fill-rule:nonzero;"/><path d="M1092.35,119.367l-2.672,-4.629l8.016,-4.628l-5.344,9.257Z" style="fill:#676758;fill-rule:nonzero;"/><path d="M1103.7,131.624l-8.016,-4.63l2.672,-4.627l5.344,9.257Z" style="fill:#636555;fill-rule:nonzero;"/><path d="M1027.67,113.88l-8.017,-13.887l8.017,-4.625l-0,18.512Z" style="fill:#4b5144;fill-rule:nonzero;"/><path d="M970.666,101.88l-15.929,-9.197l-0,-0.119l7.912,-4.571l8.017,13.887Z" style="fill:#616a5a;fill-rule:nonzero;"/><path d="M1091.7,132.624l-16.032,9.256l8.016,-13.886l8.016,4.63Z" style="fill:#6c7161;fill-rule:nonzero;"/><path d="M1103.7,122.367l-5.344,0l5.344,-9.257l0,9.257Z" style="fill:#9d9f8b;fill-rule:nonzero;"/><path d="M1103.7,122.367l0,9.257l-5.344,-9.257l5.344,0Z" style="fill:#8f977e;fill-rule:nonzero;"/><path d="M1173.18,140.884l2.672,4.628l-8.016,4.628l5.34,-9.256l0.004,-0Z" style="fill:#3e493f;fill-rule:nonzero;"/><path d="M1173.17,140.884l-5.34,9.256l-0,-9.256l5.34,-0Z" style="fill:#313b32;fill-rule:nonzero;"/><path d="M1194.55,140.884l-2.672,4.627l-8.015,-4.627l10.687,-0Z" style="fill:#5e6b51;fill-rule:nonzero;"/><path d="M1183.87,140.884l-8.018,4.628l-2.672,-4.628l10.69,-0Z" style="fill:#282e25;fill-rule:nonzero;"/><path d="M1194.56,140.884l5.341,9.256l-8.017,-4.629l2.672,-4.627l0.004,-0Z" style="fill:#6a7659;fill-rule:nonzero;"/><path d="M1199.9,140.884l-0,9.256l-5.342,-9.256l5.342,-0Z" style="fill:#4a533c;fill-rule:nonzero;"/><path d="M1183.86,159.392l0.004,0.006l-16.027,0l-0,-9.257l16.023,9.251Z" style="fill:#2a322c;fill-rule:nonzero;"/><path d="M1199.9,159.398l-16.033,0l16.033,-9.257l-0,9.257Z" style="fill:#56614a;fill-rule:nonzero;"/><path d="M1175.85,173.282l-8.015,-4.627l16.026,-9.253l-8.011,13.88Z" style="fill:#354038;fill-rule:nonzero;"/><path d="M1183.87,159.409l-0,18.504l-8.019,-4.632l8.014,-13.879l0.005,0.007Z" style="fill:#424c42;fill-rule:nonzero;"/><path d="M1191.88,173.283l-8.016,4.63l-0,-18.504l8.016,13.874Z" style="fill:#2a3229;fill-rule:nonzero;"/><path d="M1183.86,159.398l0.003,0.002l-0.003,0.002l-16.026,9.253l0,-9.257l16.026,0Z" style="fill:#222925;fill-rule:nonzero;"/><path d="M1191.88,145.511l-8.015,13.879l-0,-18.506l8.015,4.627Z" style="fill:#5c6b57;fill-rule:nonzero;"/><path d="M1199.9,150.141l-16.033,9.257l0,-0.006l8.015,-13.881l8.018,4.63Z" style="fill:#3c4435;fill-rule:nonzero;"/><path d="M1199.9,159.398l-0,9.257l-16.033,-9.257l16.033,0Z" style="fill:#525e4a;fill-rule:nonzero;"/><path d="M1199.9,168.654l-8.017,4.629l-8.016,-13.885l16.033,9.256Z" style="fill:#677661;fill-rule:nonzero;"/><path d="M1183.86,159.392l-16.023,-9.251l8.016,-4.628l8.007,13.879Z" style="fill:#1b221b;fill-rule:nonzero;"/><path d="M1183.87,159.391l-0.002,0.004l-8.016,-13.883l8.018,-4.628l-0,18.507Z" style="fill:#465144;fill-rule:nonzero;"/><path d="M1151.8,140.884l-16.033,9.256l0,-9.256l16.033,-0Z" style="fill:#48534c;fill-rule:nonzero;"/><path d="M1167.83,140.884l-0,9.256l-16.034,-9.256l16.034,-0Z" style="fill:#434f47;fill-rule:nonzero;"/><path d="M1151.8,159.398l-8.016,4.628l-2.672,-4.628l10.688,0Z" style="fill:#171b1a;fill-rule:nonzero;"/><path d="M1151.8,159.398l-10.688,0l2.672,-4.627l8.016,4.627Z" style="fill:#1e2421;fill-rule:nonzero;"/><path d="M1143.78,154.771l-8.016,-4.63l16.032,-9.258l-8.016,13.888Z" style="fill:#37403a;fill-rule:nonzero;"/><path d="M1143.78,164.026l-8.016,4.628l5.344,-9.255l2.672,4.627Z" style="fill:#454c4a;fill-rule:nonzero;"/><path d="M1151.8,159.398l-8.016,-4.627l8.016,-13.887l0,18.514Z" style="fill:#2d3530;fill-rule:nonzero;"/><path d="M1141.11,159.398l-5.344,9.257l-0,-9.257l5.344,0Z" style="fill:#47534e;fill-rule:nonzero;"/><path d="M1162.49,159.398l-10.691,0l8.019,-4.627l2.672,4.627Z" style="fill:#5a6762;fill-rule:nonzero;"/><path d="M1143.78,154.771l-2.672,4.627l-5.344,-9.257l8.016,4.63Z" style="fill:#343c3a;fill-rule:nonzero;"/><path d="M1162.49,159.398l-2.671,4.628l-8.016,-4.628l10.687,0Z" style="fill:#313a36;fill-rule:nonzero;"/><path d="M1159.82,154.771l-8.018,4.627l0,-18.515l8.018,13.888Z" style="fill:#5c6962;fill-rule:nonzero;"/><path d="M1141.11,159.398l-5.344,0l-0,-9.257l5.344,9.257Z" style="fill:#57645e;fill-rule:nonzero;"/><path d="M1167.83,150.141l-8.016,4.63l-8.018,-13.887l16.034,9.257Z" style="fill:#5b6860;fill-rule:nonzero;"/><path d="M1151.8,159.398l8.016,4.628l-8.018,13.887l-0,-18.515l0.002,0Z" style="fill:#2e3634;fill-rule:nonzero;"/><path d="M1162.49,159.398l-2.672,-4.627l8.015,-4.63l-5.343,9.257Z" style="fill:#404b45;fill-rule:nonzero;"/><path d="M1162.49,159.398l5.343,9.257l-8.015,-4.629l2.67,-4.628l0.002,0Z" style="fill:#2a322f;fill-rule:nonzero;"/><path d="M1151.8,177.913l-8.016,-13.887l8.016,-4.628l0,18.515Z" style="fill:#212724;fill-rule:nonzero;"/><path d="M1167.83,159.398l-5.343,0l5.343,-9.257l-0,9.257Z" style="fill:#3e4a44;fill-rule:nonzero;"/><path d="M1167.83,159.398l-0,9.257l-5.343,-9.257l5.343,0Z" style="fill:#333d38;fill-rule:nonzero;"/><path d="M1109.04,140.884l2.673,4.628l-8.017,4.628l5.339,-9.256l0.005,-0Z" style="fill:#616b5d;fill-rule:nonzero;"/><path d="M1109.04,140.884l-5.34,9.256l-0,-9.256l5.34,-0Z" style="fill:#4d534a;fill-rule:nonzero;"/><path d="M1130.42,140.884l-2.673,4.627l-8.015,-4.627l10.688,-0Z" style="fill:#404a3d;fill-rule:nonzero;"/><path d="M1119.73,140.884l-8.018,4.628l-2.672,-4.628l10.69,-0Z" style="fill:#4c5648;fill-rule:nonzero;"/><path d="M1130.42,140.884l5.343,9.256l-8.019,-4.629l2.672,-4.627l0.004,-0Z" style="fill:#37413b;fill-rule:nonzero;"/><path d="M1135.77,140.884l-0,9.256l-5.343,-9.256l5.343,-0Z" style="fill:#343c36;fill-rule:nonzero;"/><path d="M1119.72,159.392l0.005,0.006l-16.028,0l-0,-9.257l16.023,9.251Z" style="fill:#313732;fill-rule:nonzero;"/><path d="M1135.77,159.398l-16.034,0l16.034,-9.257l-0,9.257Z" style="fill:#222825;fill-rule:nonzero;"/><path d="M1111.71,173.282l-8.015,-4.627l16.028,-9.253l-8.013,13.88Z" style="fill:#1d211e;fill-rule:nonzero;"/><path d="M1119.73,159.409l-0,18.504l-8.019,-4.632l8.015,-13.879l0.004,0.007Z" style="fill:#373e39;fill-rule:nonzero;"/><path d="M1127.75,173.283l-8.016,4.63l-0,-18.504l8.016,13.874Z" style="fill:#1e221e;fill-rule:nonzero;"/><path d="M1119.73,159.398l0,0.004l-16.028,9.253l0,-9.257l16.028,0Z" style="fill:#474f47;fill-rule:nonzero;"/><path d="M1127.75,145.511l-8.015,13.879l-0,-18.506l8.015,4.627Z" style="fill:#404940;fill-rule:nonzero;"/><path d="M1135.77,150.141l-16.034,9.257l0,-0.006l8.015,-13.881l8.019,4.63Z" style="fill:#28302a;fill-rule:nonzero;"/><path d="M1135.77,159.398l-0,9.257l-16.034,-9.257l16.034,0Z" style="fill:#3d4642;fill-rule:nonzero;"/><path d="M1135.77,168.654l-8.018,4.629l-8.016,-13.885l16.034,9.256Z" style="fill:#222824;fill-rule:nonzero;"/><path d="M1119.72,159.392l-16.023,-9.251l8.016,-4.628l8.007,13.879Z" style="fill:#1e221e;fill-rule:nonzero;"/><path d="M1119.73,159.391l-0.004,0.004l-8.014,-13.883l8.018,-4.628l-0,18.507Z" style="fill:#637164;fill-rule:nonzero;"/><path d="M837.666,108.884l-15.929,9.197l-0,-9.197l15.929,-0Z" style="fill:#5b6458;fill-rule:nonzero;"/><path d="M1097.7,142.884l0,9.256l-16.032,-9.256l16.032,-0Z" style="fill:#30352d;fill-rule:nonzero;"/><path d="M1007.67,129.398l-8.017,4.628l-2.673,-4.628l10.69,0Z" style="fill:#3d4640;fill-rule:nonzero;"/><path d="M981.666,130.398l-10.69,0l2.673,-4.627l8.017,4.627Z" style="fill:#1f241e;fill-rule:nonzero;"/><path d="M990.649,114.771l-7.912,-4.571l-0,-0.119l15.929,-9.198l-8.017,13.888Z" style="fill:#41473e;fill-rule:nonzero;"/><path d="M988.649,140.026l-7.912,4.569l-0,-0.119l5.239,-9.077l2.673,4.627Z" style="fill:#252925;fill-rule:nonzero;"/><path d="M1013.67,125.398l-8.017,-4.627l8.017,-13.887l-0,18.514Z" style="fill:#242821;fill-rule:nonzero;"/><path d="M885.976,140.398l-5.24,9.078l0,-9.078l5.24,0Z" style="fill:#4f584f;fill-rule:nonzero;"/><path d="M1098.35,159.398l-10.688,0l8.016,-4.627l2.672,4.627Z" style="fill:#3a4036;fill-rule:nonzero;"/><path d="M925.649,138.771l-2.673,4.627l-5.239,-9.079l-0,-0.119l7.912,4.571Z" style="fill:#596157;fill-rule:nonzero;"/><path d="M1098.35,159.398l-2.672,4.628l-8.016,-4.628l10.688,0Z" style="fill:#343b34;fill-rule:nonzero;"/><path d="M1046.68,170.771l-8.016,4.627l-0,-18.515l8.016,13.888Z" style="fill:#343a31;fill-rule:nonzero;"/><path d="M956.976,128.398l-5.24,0l0,-9.079l5.24,9.079Z" style="fill:#3a4139;fill-rule:nonzero;"/><path d="M1088.7,151.141l-8.016,4.63l-8.016,-13.887l16.032,9.257Z" style="fill:#565d51;fill-rule:nonzero;"/><path d="M1098.35,159.398l-2.672,-4.627l8.016,-4.63l-5.344,9.257Z" style="fill:#292d27;fill-rule:nonzero;"/><path d="M1103.7,168.654l-8.016,-4.627l2.672,-4.629l5.344,9.256Z" style="fill:#282d28;fill-rule:nonzero;"/><path d="M1005.67,156.913l-8.017,-13.887l8.017,-4.628l-0,18.515Z" style="fill:#3f4740;fill-rule:nonzero;"/><path d="M971.666,169.913l-15.929,-9.199l-0,-0.119l7.912,-4.569l8.017,13.887Z" style="fill:#151817;fill-rule:nonzero;"/><path d="M1103.7,159.398l-5.344,0l5.344,-9.257l0,9.257Z" style="fill:#48524a;fill-rule:nonzero;"/><path d="M1103.7,159.398l0,9.257l-5.344,-9.257l5.344,0Z" style="fill:#363e39;fill-rule:nonzero;"/><path d="M1147.8,57.818l-8.016,-13.887l8.016,-4.628l0,18.515Z" style="fill:#a2a795;fill-rule:nonzero;"/></g></svg>