<?xml version="1.0" encoding="UTF-8" standalone="no"?><!DOCTYPE svg PUBLIC "-//W3C//DTD SVG 1.1//EN" "http://www.w3.org/Graphics/SVG/1.1/DTD/svg11.dtd"><svg width="100%" height="100%" viewBox="0 0 48 48" version="1.1" xmlns="http://www.w3.org/2000/svg" xmlns:xlink="http://www.w3.org/1999/xlink" xml:space="preserve" xmlns:serif="http://www.serif.com/" style="fill-rule:evenodd;clip-rule:evenodd;stroke-linejoin:round;stroke-miterlimit:2;"><rect id="github-logo" x="0" y="0" width="48" height="48" style="fill:none;"/><clipPath id="_clip1"><rect x="0" y="0" width="48" height="48"/></clipPath><g clip-path="url(#_clip1)"><path d="M24.02,0c-13.283,0 -24.02,10.817 -24.02,24.198c0,10.697 6.88,19.752 16.424,22.956c1.193,0.241 1.63,-0.52 1.63,-1.161c0,-0.561 -0.039,-2.484 -0.039,-4.488c-6.682,1.443 -8.073,-2.884 -8.073,-2.884c-1.074,-2.805 -2.665,-3.525 -2.665,-3.525c-2.187,-1.483 0.159,-1.483 0.159,-1.483c2.426,0.161 3.699,2.484 3.699,2.484c2.147,3.686 5.607,2.644 6.999,2.003c0.199,-1.562 0.835,-2.644 1.512,-3.245c-5.33,-0.561 -10.937,-2.644 -10.937,-11.939c0,-2.644 0.954,-4.807 2.466,-6.49c-0.239,-0.601 -1.074,-3.085 0.239,-6.41c-0,-0 2.028,-0.641 6.601,2.484c1.957,-0.53 3.977,-0.8 6.005,-0.802c2.028,0 4.095,0.281 6.005,0.802c4.573,-3.125 6.601,-2.484 6.601,-2.484c1.313,3.325 0.477,5.809 0.239,6.41c1.551,1.683 2.465,3.846 2.465,6.49c0,9.295 -5.607,11.338 -10.976,11.939c0.876,0.761 1.631,2.203 1.631,4.487c-0,3.245 -0.04,5.849 -0.04,6.65c0,0.642 0.438,1.403 1.631,1.163c9.544,-3.206 16.424,-12.26 16.424,-22.957c0.039,-13.381 -10.738,-24.198 -23.98,-24.198Z" style="fill:#fff;"/></g></svg>