<?xml version="1.0" encoding="UTF-8" standalone="no"?><!DOCTYPE svg PUBLIC "-//W3C//DTD SVG 1.1//EN" "http://www.w3.org/Graphics/SVG/1.1/DTD/svg11.dtd"><svg width="100%" height="100%" viewBox="0 0 48 48" version="1.1" xmlns="http://www.w3.org/2000/svg" xmlns:xlink="http://www.w3.org/1999/xlink" xml:space="preserve" xmlns:serif="http://www.serif.com/" style="fill-rule:evenodd;clip-rule:evenodd;stroke-linejoin:round;stroke-miterlimit:2;"><rect id="linkedin-logo" x="0" y="0" width="48" height="48" style="fill:none;"/><clipPath id="_clip1"><rect x="0" y="0" width="48" height="48"/></clipPath><g clip-path="url(#_clip1)"><path d="M24,-0c13.246,-0 24,10.754 24,24c0,13.246 -10.754,24 -24,24c-13.246,-0 -24,-10.754 -24,-24c0,-13.246 10.754,-24 24,-24Zm-11.472,15.259c2.2,-0 3.57,-1.503 3.57,-3.381c-0.041,-1.921 -1.37,-3.382 -3.528,-3.382c-2.159,-0 -3.57,1.461 -3.57,3.382c-0,1.878 1.369,3.381 3.487,3.381l0.041,-0Zm3.155,22.245l-0,-19.573l-6.31,0l-0,19.573l6.31,0Zm10.366,-16.802l0,0.068l-0.042,-0l0.042,-0.068l0,-2.771l-6.309,0c0.083,1.837 -0,19.573 -0,19.573l6.309,0l0,-10.93c0,-0.585 0.041,-1.17 0.208,-1.588c0.456,-1.168 1.494,-2.379 3.237,-2.379c2.284,0 3.197,1.795 3.197,4.426l-0,10.471l6.309,0l0,-11.223c0,-6.012 -3.113,-8.809 -7.264,-8.809c-3.347,0 -4.848,1.897 -5.687,3.23Z" style="fill:#fff;"/></g></svg>