<?xml version="1.0" encoding="UTF-8" standalone="no"?><!DOCTYPE svg PUBLIC "-//W3C//DTD SVG 1.1//EN" "http://www.w3.org/Graphics/SVG/1.1/DTD/svg11.dtd"><svg width="100%" height="100%" viewBox="0 0 48 48" version="1.1" xmlns="http://www.w3.org/2000/svg" xmlns:xlink="http://www.w3.org/1999/xlink" xml:space="preserve" xmlns:serif="http://www.serif.com/" style="fill-rule:evenodd;clip-rule:evenodd;stroke-linejoin:round;stroke-miterlimit:2;"><rect id="behance-logo" x="0" y="0" width="48" height="48" style="fill:none;"/><path id="background" d="M24,0c13.246,0 24,10.754 24,24c-0,13.246 -10.754,24 -24,24c-13.246,-0 -24,-10.754 -24,-24c0,-13.246 10.754,-24 24,-24Zm-7.044,13.125l-10.236,0l0,21.752l10.543,-0c0.96,0.002 1.918,-0.121 2.847,-0.365c0.924,-0.244 1.745,-0.618 2.467,-1.127c0.722,-0.507 1.296,-1.162 1.723,-1.964c0.426,-0.803 0.639,-1.753 0.639,-2.849c-0,-1.362 -0.33,-2.525 -0.991,-3.489c-0.66,-0.964 -1.661,-1.64 -3.001,-2.026c0.974,-0.466 1.711,-1.065 2.208,-1.797c0.497,-0.731 0.747,-1.645 0.747,-2.742c0,-1.015 -0.167,-1.868 -0.503,-2.559c-0.336,-0.691 -0.808,-1.244 -1.417,-1.661c-0.609,-0.416 -1.338,-0.716 -2.193,-0.898c-0.854,-0.183 -1.799,-0.275 -2.833,-0.275Zm-0.609,8.803l-4.842,0.004l-0,-5.088l4.475,0c0.415,-0.002 0.828,0.035 1.235,0.106c0.395,0.071 0.745,0.198 1.05,0.38c0.305,0.182 0.549,0.438 0.731,0.762c0.183,0.325 0.275,0.741 0.275,1.248c0.002,0.914 -0.273,1.573 -0.822,1.98c-0.549,0.405 -1.25,0.608 -2.102,0.608Zm0.274,9.23l-5.116,0.002l-0,-5.972l5.209,0c1.034,0 1.868,0.239 2.498,0.717c0.629,0.476 0.944,1.275 0.944,2.39c0,0.568 -0.098,1.037 -0.29,1.402c-0.194,0.364 -0.453,0.654 -0.777,0.867c-0.325,0.214 -0.701,0.365 -1.127,0.457c-0.44,0.093 -0.889,0.139 -1.341,0.137Zm14.335,-0.457c-0.649,-0.628 -1.004,-1.644 -1.064,-3.04l11.363,0c0.081,-1.219 -0.021,-2.386 -0.305,-3.504c-0.284,-1.117 -0.747,-2.112 -1.386,-2.985c-0.64,-0.874 -1.458,-1.569 -2.452,-2.087c-0.997,-0.519 -2.164,-0.778 -3.504,-0.778c-1.198,0 -2.291,0.213 -3.276,0.64c-0.985,0.426 -1.833,1.009 -2.544,1.751c-0.71,0.741 -1.259,1.618 -1.645,2.634c-0.386,1.016 -0.578,2.112 -0.578,3.289c-0,1.217 0.188,2.335 0.562,3.35c0.375,1.016 0.909,1.888 1.6,2.619c0.691,0.732 1.534,1.296 2.528,1.692c0.995,0.395 2.112,0.593 3.351,0.593c1.787,-0 3.31,-0.407 4.569,-1.219c1.26,-0.812 2.195,-2.162 2.804,-4.052l-3.808,0c-0.142,0.488 -0.528,0.951 -1.158,1.387c-0.629,0.436 -1.38,0.654 -2.254,0.654c-1.219,0 -2.154,-0.314 -2.803,-0.944Zm4.89,-8.285c0.517,0.568 0.878,1.402 1.083,2.496l-7.037,0c0.02,-0.303 0.087,-0.649 0.198,-1.035c0.112,-0.386 0.304,-0.751 0.578,-1.096c0.275,-0.346 0.64,-0.634 1.096,-0.868c0.456,-0.232 1.03,-0.349 1.721,-0.349c1.056,-0 1.843,0.284 2.361,0.852Zm-6.695,-8.187l0,2.439l8.792,-0l0,-2.439l-8.792,0Z" style="fill:#fff;"/></svg>