<?xml version="1.0" encoding="UTF-8" standalone="no"?><!DOCTYPE svg PUBLIC "-//W3C//DTD SVG 1.1//EN" "http://www.w3.org/Graphics/SVG/1.1/DTD/svg11.dtd"><svg width="100%" height="100%" viewBox="0 0 48 48" version="1.1" xmlns="http://www.w3.org/2000/svg" xmlns:xlink="http://www.w3.org/1999/xlink" xml:space="preserve" xmlns:serif="http://www.serif.com/" style="fill-rule:evenodd;clip-rule:evenodd;stroke-linejoin:round;stroke-miterlimit:2;"><rect id="bluesky-logo" x="0" y="0" width="48" height="48" style="fill:none;"/><path d="M23.983,21.998c-1.816,-3.517 -6.741,-10.088 -11.325,-13.322c-4.392,-3.098 -6.071,-2.564 -7.16,-2.065c-1.271,0.579 -1.498,2.531 -1.498,3.677c-0,1.146 0.624,9.418 1.044,10.792c1.362,4.561 6.184,6.105 10.632,5.605c0.227,-0.034 0.454,-0.068 0.693,-0.091c-0.227,0.034 -0.466,0.068 -0.693,0.091c-6.513,0.965 -12.311,3.336 -4.709,11.791c8.352,8.647 11.45,-1.85 13.039,-7.183c1.589,5.322 3.416,15.444 12.879,7.183c7.115,-7.183 1.952,-10.826 -4.561,-11.791c-0.227,-0.023 -0.466,-0.057 -0.693,-0.091c0.239,0.034 0.466,0.057 0.693,0.091c4.448,0.499 9.282,-1.044 10.632,-5.605c0.409,-1.385 1.044,-9.646 1.044,-10.792c-0,-1.146 -0.227,-3.098 -1.498,-3.677c-1.101,-0.499 -2.769,-1.033 -7.16,2.065c-4.618,3.246 -9.543,9.805 -11.359,13.322l-0,0Z" style="fill:#fff;fill-rule:nonzero;"/></svg>