<?xml version="1.0" encoding="UTF-8" standalone="no"?><!DOCTYPE svg PUBLIC "-//W3C//DTD SVG 1.1//EN" "http://www.w3.org/Graphics/SVG/1.1/DTD/svg11.dtd"><svg width="100%" height="100%" viewBox="0 0 48 48" version="1.1" xmlns="http://www.w3.org/2000/svg" xmlns:xlink="http://www.w3.org/1999/xlink" xml:space="preserve" xmlns:serif="http://www.serif.com/" style="fill-rule:evenodd;clip-rule:evenodd;stroke-linejoin:round;stroke-miterlimit:2;"><rect id="instagram-logo" x="0" y="0" width="48" height="48" style="fill:none;"/><clipPath id="_clip1"><rect x="0" y="0" width="48" height="48"/></clipPath><g clip-path="url(#_clip1)"><path d="M24,-0c13.246,-0 24,10.754 24,24c0,13.246 -10.754,24 -24,24c-13.246,0 -24,-10.754 -24,-24c0,-13.246 10.754,-24 24,-24Zm-0.003,8.012c-4.341,-0 -4.887,0.019 -6.593,0.096c-1.703,0.078 -2.866,0.348 -3.883,0.743c-1.053,0.408 -1.945,0.955 -2.835,1.844c-0.89,0.888 -1.436,1.78 -1.846,2.832c-0.397,1.017 -0.667,2.179 -0.744,3.88c-0.076,1.706 -0.096,2.251 -0.096,6.593c0,4.342 0.019,4.885 0.097,6.591c0.078,1.702 0.348,2.864 0.743,3.88c0.409,1.052 0.956,1.944 1.845,2.833c0.889,0.889 1.782,1.437 2.834,1.845c1.018,0.395 2.181,0.665 3.884,0.743c1.706,0.077 2.251,0.096 6.596,0.096c4.346,0 4.89,-0.019 6.597,-0.096c1.703,-0.078 2.867,-0.348 3.885,-0.743c1.052,-0.408 1.943,-0.956 2.832,-1.845c0.89,-0.889 1.437,-1.781 1.847,-2.832c0.393,-1.017 0.663,-2.179 0.743,-3.881c0.077,-1.705 0.097,-2.249 0.097,-6.591c-0,-4.342 -0.02,-4.887 -0.097,-6.593c-0.08,-1.702 -0.35,-2.863 -0.743,-3.88c-0.41,-1.052 -0.957,-1.944 -1.847,-2.832c-0.89,-0.89 -1.78,-1.436 -2.833,-1.844c-1.02,-0.395 -2.183,-0.665 -3.887,-0.743c-1.706,-0.077 -2.249,-0.096 -6.592,-0.096l-0.004,-0Zm-1.431,2.881l1.435,-0c4.273,-0 4.779,0.015 6.466,0.092c1.56,0.071 2.407,0.332 2.971,0.55c0.746,0.29 1.279,0.637 1.838,1.196c0.56,0.56 0.907,1.093 1.198,1.839c0.219,0.563 0.48,1.409 0.551,2.968c0.076,1.685 0.093,2.191 0.093,6.458c-0,4.267 -0.017,4.774 -0.093,6.459c-0.072,1.559 -0.332,2.405 -0.551,2.968c-0.29,0.746 -0.638,1.277 -1.198,1.836c-0.56,0.56 -1.091,0.906 -1.838,1.196c-0.564,0.22 -1.411,0.48 -2.971,0.551c-1.687,0.077 -2.193,0.093 -6.466,0.093c-4.272,0 -4.778,-0.016 -6.465,-0.093c-1.56,-0.072 -2.407,-0.332 -2.971,-0.551c-0.747,-0.29 -1.28,-0.636 -1.84,-1.196c-0.56,-0.559 -0.907,-1.091 -1.197,-1.838c-0.219,-0.562 -0.48,-1.409 -0.551,-2.967c-0.077,-1.686 -0.092,-2.192 -0.092,-6.462c-0,-4.269 0.015,-4.773 0.092,-6.458c0.071,-1.559 0.332,-2.405 0.551,-2.969c0.29,-0.746 0.637,-1.279 1.197,-1.838c0.56,-0.56 1.093,-0.906 1.84,-1.197c0.564,-0.22 1.411,-0.48 2.971,-0.551c1.476,-0.067 2.048,-0.087 5.03,-0.09l0,0.004Zm1.435,4.896c-4.537,0 -8.216,3.677 -8.216,8.211c-0,4.534 3.679,8.209 8.216,8.209c4.538,-0 8.216,-3.675 8.216,-8.209c-0,-4.534 -3.678,-8.211 -8.216,-8.211Zm0,2.882c2.946,-0 5.334,2.385 5.334,5.329c-0,2.943 -2.388,5.329 -5.334,5.329c-2.945,0 -5.333,-2.386 -5.333,-5.329c0,-2.944 2.388,-5.329 5.333,-5.329Zm8.541,-5.124c-1.06,0 -1.92,0.859 -1.92,1.919c0,1.059 0.86,1.918 1.92,1.918c1.06,0 1.92,-0.859 1.92,-1.918c0,-1.06 -0.86,-1.919 -1.92,-1.919Z" style="fill:#fff;"/></g></svg>